<?xml version="1.0" standalone="no"?><!DOCTYPE svg PUBLIC "-//W3C//DTD SVG 1.1//EN" "http://www.w3.org/Graphics/SVG/1.1/DTD/svg11.dtd"><svg t="1754270545115" class="icon" viewBox="0 0 1024 1024" version="1.1" xmlns="http://www.w3.org/2000/svg" p-id="11797" xmlns:xlink="http://www.w3.org/1999/xlink" width="32" height="32"><path d="M953.7 491.4l-0.4-1.5c-2.5-10.9-4.9-21.8-7.3-32.3-2.4-10.6-4.9-21.5-7.3-32.4-3.2-14.3-6.5-28.9-9.7-43.1s-6.5-28.7-9.7-42.9l-19.4-87.4c-2.2-10.1-4.6-20.5-6.9-30.6-2.9-12.4-5.8-25.2-8.5-38.1l-0.3-1.5c-3.3-15.7-6.7-31.9-15.2-46.3l-0.1-0.1c-8.5-14-20.3-26-34.1-34.9l-0.2-0.1c-16.7-10.1-34-15.7-51.5-16.5H254.4v-0.8H95.3c-17.1 0-31.4 13.9-31.7 31.1v454.7c-0.1 8.4 3 16.4 8.9 22.5 5.9 6.1 13.8 9.5 22.3 9.7h136.5v0.7l6.9 0.9c114.5 14.9 199.8 109 203 223.9v0.7c0 1.1-0.1 2.5-0.3 3.9-0.3 1.7-0.5 3.7-0.5 5.8-0.1 27.7 10.6 53.9 30.2 73.6 19.5 19.7 45.6 30.6 73.4 30.7h0.7c23.9 0 46.4-7.8 64.9-22.6 18.2-14.5 31.2-35.1 36.7-58v-0.1l2.5-12.3c4.4-21.5 6.6-45.4 6.6-72.8-0.1-43.9-7.3-87.2-21.4-128.7l-2.1-7.6h225c35.4-1.5 68-20.1 87.3-49.8l0.1-0.1c8.3-13.3 13.9-30.3 15.7-47.9 1.7-17.9-2.4-34.1-6.3-49.8zM828.3 230.9c2.9 12.4 5.8 25.2 8.5 38.1v0.1c3.2 14.4 6.6 29.3 10 43.7 3.4 14.7 6.9 29.9 10.2 44.6l19.4 87.5c1.6 7.7 3.5 15.6 5.3 23.2 1.8 7.5 3.6 15.3 5.2 22.9 0.8 3.7 1.6 7.5 2.4 11.3 0.8 3.9 1.6 7.7 2.4 11.4l0.9 3.9c1.3 5.6 2.7 11.5 2.2 16.2v0.6c-0.1 1.8-0.4 3.7-1.1 5.4l-0.3 0.8-0.1 0.9c-0.6 4.3-2.6 8.3-4.7 12.6-8.6 13.2-21.4 19.6-39.2 19.6-1 0-2-0.1-3-0.1H583.9c-17.1 0-31.4 14-31.7 31.2v1c0 4.9 1.1 9.8 3.3 14.1l4.8 9.7c12.2 24.8 21.3 51.2 26.9 78.3l0.1 0.7 1.8 4.4c0.4 1.7 5.2 21 5.2 60.6-0.1 20.1-2 40.4-5.5 60.2l-0.1 0.7v0.7c0 21.6-18.6 39.9-40.7 39.9h-0.6c-0.9 0.1-1.8 0.1-2.7 0.1-18 0-33.9-12.6-38.5-30.6l-0.7-2.6V832.7c0.1-7.3 0.2-33-5-58.9-1.3-6.7-3.1-13.1-5-20-0.5-1.9-1.1-3.8-1.6-5.7l-0.1-0.2-2.5-7.5c-31.7-95.3-111.4-169.9-208-194.7l-4.6-1.1V147.2h490.2c17.9 0 30.2 2.4 40 14.8 5.9 7.6 8.2 18.7 10.4 29.5 0.6 2.9 1.2 5.8 1.9 8.7 2.2 10.2 4.6 20.6 7.1 30.7zM128 536.6V148.1h87.1v389.2l-87.1-0.7z" fill="#2C2C2C" p-id="11798"></path></svg>